# xmcd CD database file
#
# Track frame offsets:
#	151
#	13838
#	91857
#	115942
#	175566
#	264904
#	304320
#
# Disc length: 4229 seconds
#
# Revision: 1
# Processed by: cddbd v1.5.2PL0 Copyright (c) Steve Scherf et al.
# Submitted via: CDex 1.51
#
DISCID=4d108307
DTITLE=Mosquitos on Holiday - The New Hu-Man
DYEAR=2002
DGENRE=New Age
TTITLE0=Beloved Master I'm on Fire
TTITLE1=Everything can be Denied, exept you
TTITLE2=Anonymous Graves
TTITLE3=I find myself absolytely alone in this world
TTITLE4=But a strange thing sannyasin
TTITLE5=One Humanity
TTITLE6=Trust is in Miracle
EXTD=YEAR: 2002
EXTT0=
EXTT1=
EXTT2=
EXTT3=
EXTT4=
EXTT5=
EXTT6=
PLAYORDER=
